HIERARCHY
ROOT reference
{
  OFFSET 0 0 0
  CHANNELS 6 Xposition Yposition Zposition Zrotation Xrotation Yrotation
  JOINT Hips
  {
    OFFSET -3.16224 94.7983 86.5786
    CHANNELS 6 Xposition Yposition Zposition Zrotation Xrotation Yrotation
    JOINT Spine
    {
      OFFSET 0 8.22665 0
      CHANNELS 6 Xposition Yposition Zposition Zrotation Xrotation Yrotation
      JOINT Spine1
      {
        OFFSET 0 24.451 0
        CHANNELS 6 Xposition Yposition Zposition Zrotation Xrotation Yrotation
        JOINT Neck
        {
          OFFSET 0 24.3506 2.21369
          CHANNELS 6 Xposition Yposition Zposition Zrotation Xrotation Yrotation
          JOINT Head
          {
            OFFSET 0 14.0455 -2.0065
            CHANNELS 6 Xposition Yposition Zposition Zrotation Xrotation Yrotation
            End Site
            {
              OFFSET 0 25.0812 0
            }
          }
        }
        JOINT LeftShoulder
        {
          OFFSET 4.0594 22.2558 -0.272799
          CHANNELS 6 Xposition Yposition Zposition Zrotation Xrotation Yrotation
          JOINT LeftArm
          {
            OFFSET 12.0298 0 0
            CHANNELS 6 Xposition Yposition Zposition Zrotation Xrotation Yrotation
            JOINT LeftForeArm
            {
              OFFSET 31.2689 0 0
              CHANNELS 6 Xposition Yposition Zposition Zrotation Xrotation Yrotation
              JOINT LeftHand
              {
                OFFSET 28.0275 0 0
                CHANNELS 6 Xposition Yposition Zposition Zrotation Xrotation Yrotation
                End Site
                {
                  OFFSET 15.0487 0 0
                }
              }
            }
          }
        }
        JOINT RightShoulder
        {
          OFFSET -3.96464 22.2558 -0.272799
          CHANNELS 6 Xposition Yposition Zposition Zrotation Xrotation Yrotation
          JOINT RightArm
          {
            OFFSET -12.0298 0 0
            CHANNELS 6 Xposition Yposition Zposition Zrotation Xrotation Yrotation
            JOINT RightForeArm
            {
              OFFSET -31.2689 0 0
              CHANNELS 6 Xposition Yposition Zposition Zrotation Xrotation Yrotation
              JOINT RightHand
              {
                OFFSET -28.0275 0 0
                CHANNELS 6 Xposition Yposition Zposition Zrotation Xrotation Yrotation
                End Site
                {
                  OFFSET -15.0487 0 0
                }
              }
            }
          }
        }
      }
    }
    JOINT LeftUpLeg
    {
      OFFSET 10.0325 0 0
      CHANNELS 6 Xposition Yposition Zposition Zrotation Xrotation Yrotation
      JOINT LeftLeg
      {
        OFFSET 0 -38.4033 0
        CHANNELS 6 Xposition Yposition Zposition Zrotation Xrotation Yrotation
        JOINT LeftFoot
        {
          OFFSET 0 -44.1642 0
          CHANNELS 6 Xposition Yposition Zposition Zrotation Xrotation Yrotation
          JOINT LeftToeBase
          {
            OFFSET 0 -6.52112 15.0487
            CHANNELS 6 Xposition Yposition Zposition Zrotation Xrotation Yrotation
            End Site
            {
              OFFSET 0 0 4.013
            }
          }
        }
      }
    }
    JOINT RightUpLeg
    {
      OFFSET -10.0325 0 0
      CHANNELS 6 Xposition Yposition Zposition Zrotation Xrotation Yrotation
      JOINT RightLeg
      {
        OFFSET 0 -38.4033 0
        CHANNELS 6 Xposition Yposition Zposition Zrotation Xrotation Yrotation
        JOINT RightFoot
        {
          OFFSET 0 -44.1642 0
          CHANNELS 6 Xposition Yposition Zposition Zrotation Xrotation Yrotation
          JOINT RightToeBase
          {
            OFFSET 0 -6.52112 15.0487
            CHANNELS 6 Xposition Yposition Zposition Zrotation Xrotation Yrotation
            End Site
            {
              OFFSET 0 0 4.013
            }
          }
        }
      }
    }
  }
}
MOTION
Frames:	6
Frame Time:	0.004
0 0 0 0 0 -0 -19.232 85.6972 -216.04 0.527198 -0.316344 1.38534 -1.77636e-015 8.22665 0 -0.86768 -5.84067 0.791032 -1.77636e-015 24.451 0 0.177472 0.572932 0.834265 0 24.3506 2.21369 8.97734 17.023 12.7926 -1.42109e-014 14.0455 -2.0065 -11.2417 -0.647421 11.7527 4.0594 22.2558 -0.272799 20.1404 -0.306537 -6.69135 12.0298 -2.84217e-014 2.84217e-014 -18.5815 0.533895 -0.185968 31.2689 0 0 2.60285 -1.62861 1.60273 28.0275 0 0 8.98846 -1.67339 -0.111355 -3.96464 22.2558 -0.272799 -16.7111 -3.34797 3.06827 -12.0298 0 0 11.7651 2.87653 6.92273 -31.2689 0 0 -1.8837 -2.0534 -2.47022 -28.0275 2.84217e-014 0 5.10408 -2.07593 0.411511 10.0325 0 0 -0.760078 4.02877 -1.0553 0 -38.4033 0 -2.76766 3.65593 -5.28391 3.55271e-015 -44.1642 0 3.85075 -7.75652 18.3165 -7.10543e-015 -6.52112 15.0487 2.48481e-017 1.98785e-016 1.59028e-015 -10.0325 0 -2.84217e-014 -0.938141 -1.65617 0.951408 0 -38.4033 0 0.599994 16.8752 1.79417 0 -44.1642 0 2.67218 -14.5517 -6.55772 0 -6.52112 15.0487 3.66509e-016 9.93923e-017 -0 
0 0 0 0 0 -0 -19.232 85.6972 -216.04 0.527198 -0.316344 1.38534 -1.77636e-015 8.22665 0 -0.86768 -5.84067 0.791032 -1.77636e-015 24.451 0 0.17733 0.582741 0.834266 0 24.3506 2.21369 8.99981 17.0224 12.8022 -1.42109e-014 14.0455 -2.0065 -11.2896 -0.617169 11.7527 4.0594 22.2558 -0.272799 20.1404 -0.306537 -6.69135 12.0298 0 0 -18.5815 0.54357 -0.185969 31.2689 0 0 2.61715 -1.62634 1.61234 28.0275 2.84217e-014 0 8.92493 -1.67184 -0.111355 -3.96464 22.2558 -0.272799 -16.7222 -3.36563 3.06833 -12.0298 2.84217e-014 0 11.7767 2.89314 6.92284 -31.2689 -2.84217e-014 -2.84217e-014 -1.88427 -2.06663 -2.47024 -28.0275 0 2.84217e-014 5.04289 -2.09031 0.385945 10.0325 0 0 -0.739981 3.98663 -1.12807 0 -38.4033 0 -2.81379 3.7239 -5.24843 7.10543e-015 -44.1642 2.84217e-014 3.91523 -7.75946 18.3518 0 -6.52112 15.0487 4.96962e-017 9.93923e-017 -0 -10.0325 0 -2.84217e-014 -0.938159 -1.6657 0.945363 0 -38.4033 -2.84217e-014 0.598885 16.8752 1.79218 -7.10543e-015 -44.1642 0 2.72001 -14.5519 -6.55181 0 -6.52112 15.0487 3.35449e-016 -1.98785e-016 -3.97569e-016 
0 0 0 0 0 -0 -19.232 85.6972 -216.04 0.527198 -0.316344 1.38534 -1.77636e-015 8.22665 0 -0.86768 -5.84067 0.791032 -1.77636e-015 24.451 0 0.17735 0.581305 0.834266 -1.77636e-015 24.3506 2.21369 8.99659 17.0338 12.8052 0 14.0455 -2.0065 -11.2797 -0.634062 11.7527 4.0594 22.2558 -0.272799 20.1404 -0.306537 -6.69057 12.0298 -5.68434e-014 0 -18.5816 0.525006 -0.185968 31.2689 0 0 2.59774 -1.61067 1.60709 28.0275 0 2.84217e-014 8.93442 -1.65508 -0.10176 -3.96464 22.2558 -0.272799 -16.7059 -3.35181 3.06374 -12.0298 -2.84217e-014 0 11.7643 2.91605 6.92298 -31.2689 0 0 -1.89399 -2.07244 -2.47025 -28.0275 0 0 5.08071 -2.09501 0.415465 10.0325 0 0 -0.746627 3.99626 -1.13459 0 -38.4033 0 -2.79686 3.70661 -5.23902 0 -44.1642 -2.84217e-014 3.86328 -7.79109 18.3612 0 -6.52112 15.0487 -4.96962e-017 -2.98177e-016 4.77083e-015 -10.0325 0 -2.84217e-014 -0.938457 -1.66976 0.93283 0 -38.4033 -2.84217e-014 0.586633 16.8753 1.77771 -1.77636e-015 -44.1642 2.84217e-014 2.68063 -14.563 -6.49906 -7.10543e-015 -6.52112 15.0487 -8.26199e-016 -9.93923e-017 3.97569e-016 
0 0 0 0 0 -0 -19.232 85.6972 -216.04 0.527198 -0.316344 1.38534 -1.77636e-015 8.22665 0 -0.867566 -5.84067 0.792159 0 24.451 -2.84217e-014 0.177236 0.586911 0.837497 1.77636e-015 24.3506 2.21369 9.02232 17.0075 12.8042 0 14.0455 -2.0065 -11.3216 -0.582422 11.7526 4.0594 22.2558 -0.272799 20.1404 -0.306547 -6.6894 12.0298 5.68434e-014 0 -18.5816 0.5278 -0.185968 31.2689 0 -2.84217e-014 2.60627 -1.60873 1.61023 28.0275 0 0 8.91545 -1.65388 -0.108407 -3.96464 22.2558 -0.272799 -16.7072 -3.32193 3.0586 -12.0298 0 2.84217e-014 11.7626 2.88158 6.92277 -31.2689 -5.68434e-014 -2.84217e-014 -1.89302 -2.06714 -2.47024 -28.0275 2.84217e-014 -2.84217e-014 5.06118 -2.09047 0.395874 10.0325 0 0 -0.76478 4.0368 -1.04871 1.77636e-015 -38.4033 2.84217e-014 -2.75076 3.63861 -5.271 0 -44.1642 0 3.81411 -7.76044 18.2983 0 -6.52112 15.0487 -2.48481e-017 0 -0 -10.0325 0 -2.84217e-014 -0.938376 -1.66373 0.938995 -3.55271e-015 -38.4033 -2.84217e-014 0.597625 16.8752 1.78888 1.77636e-015 -44.1642 0 2.68798 -14.5533 -6.5323 7.10543e-015 -6.52112 15.0487 -6.27414e-016 -2.98177e-016 -0 
0 0 0 0 0 -0 -19.232 85.6972 -216.04 0.5272 -0.316344 1.38571 0 8.22665 0 -0.867444 -5.84066 0.793354 1.77636e-015 24.451 0 0.177096 0.595932 0.838255 -3.55271e-015 24.3506 2.21369 9.0012 17.0342 12.8069 1.42109e-014 14.0455 -2.0065 -11.312 -0.632906 11.7527 4.0594 22.2558 -0.272799 20.1411 -0.30072 -6.68815 12.0298 2.84217e-014 0 -18.581 0.506422 -0.185968 31.2689 -2.84217e-014 0 2.60235 -1.60754 1.61365 28.0275 0 0 8.91239 -1.65239 -0.105526 -3.96464 22.2558 -0.272799 -16.7051 -3.34882 3.05757 -12.0298 0 0 11.7727 2.90868 6.91384 -31.2689 0 2.84217e-014 -1.90468 -2.0536 -2.47022 -28.0275 -2.84217e-014 2.84217e-014 5.10607 -2.07605 0.419681 10.0325 0 0 -0.738985 3.99017 -1.14967 1.77636e-015 -38.4033 0 -2.80746 3.72413 -5.23825 3.55271e-015 -44.1642 0 3.8658 -7.78794 18.3639 0 -6.52112 15.0487 -2.48481e-017 0 -0 -10.0325 -1.42109e-014 0 -0.937823 -1.66482 0.957437 0 -38.4033 0 0.598566 16.8753 1.78396 0 -44.1642 0 2.72498 -14.562 -6.53043 0 -6.52112 15.0487 -4.5969e-016 -9.93923e-017 -1.19271e-015 
0 0 0 0 0 -0 -19.232 85.6972 -216.04 0.527187 -0.316344 1.38338 3.55271e-015 8.22665 2.84217e-014 -0.867323 -5.84066 0.794548 -3.55271e-015 24.451 0 0.177053 0.598357 0.838952 -1.77636e-015 24.3506 2.21369 9.02009 17.0222 12.807 1.42109e-014 14.0455 -2.0065 -11.3386 -0.612999 11.7526 4.0594 22.2558 -0.272799 20.1514 -0.324824 -6.68688 12.0298 2.84217e-014 0 -18.5977 0.516289 -0.185968 31.2689 -2.84217e-014 -2.84217e-014 2.59662 -1.57917 1.61447 28.0275 0 0 8.90392 -1.62504 -0.119351 -3.96464 22.2558 -0.272799 -16.7048 -3.33991 3.05677 -12.0298 2.84217e-014 -2.84217e-014 11.7624 2.89295 6.91831 -31.2689 0 2.84217e-014 -1.89325 -2.05661 -2.47023 -28.0275 2.84217e-014 -2.84217e-014 5.07373 -2.07969 0.400573 10.0325 1.42109e-014 0 -0.756024 4.00208 -1.0425 3.55271e-015 -38.4033 0 -2.77077 3.69057 -5.28955 0 -44.1642 -2.84217e-014 3.85607 -7.78384 18.3229 0 -6.52112 15.0487 0 0 -3.18055e-015 -10.0325 1.42109e-014 2.84217e-014 -0.937137 -1.67527 0.974904 -3.55271e-015 -38.4033 0 0.60101 16.8753 1.78079 3.55271e-015 -44.1642 0 2.65548 -14.5668 -6.5286 0 -6.52112 15.0487 5.90142e-017 9.93923e-017 -0 
